# xmcd
#
# Track frame offsets: 
#        150
#        9650
#        25075
#        34841
#        51296
#        68570
#        81909
#        90335
#        105201
#        119863
#        127571
#
# Disc length: 1927 seconds
#
# Revision: 0
# Processed by: cddbd v1.5.2PL0 Copyright (c) Steve Scherf et al.
# Submitted via: ExactAudioCopyFreeDBPlugin 1.0
#
DISCID=7d07850b
DTITLE=Reba McEntire - My Kind Of Christmas
DYEAR=2016
DGENRE=Christmas
TTITLE0=Winter Wonderland
TTITLE1=The Christmas Song (Chestnuts Roasting On An Open Fire)
TTITLE2=Santa Claus Is Coming To Town
TTITLE3=O Holy Night
TTITLE4=Hard Candy Christmas
TTITLE5=O Come All Ye Faithful
TTITLE6=Jingle Bell Rock
TTITLE7=Silent Night
TTITLE8=White Christmas
TTITLE9=Jingle Bells
TTITLE10=I'll Be Home For Christmas
EXTD=
EXTT0=
EXTT1=
EXTT2=
EXTT3=
EXTT4=
EXTT5=
EXTT6=
EXTT7=
EXTT8=
EXTT9=
EXTT10=
PLAYORDER=
